<svg id="talent-joe-logo-icon" viewBox="0 0 1192.18 1004.65" xmlns="http://www.w3.org/2000/svg">
   <path fill="#ff4500" class="tj-red" d="M1101.6,404.01c-0.3-9.17-5.7-14.75-14.61-16.45c-7.82-1.49-15.71-2.91-23.62-3.46 c-8.62-0.6-17.39,0.55-25.96-0.35c-9.17-0.97-18.56-2.41-27.18-5.51c-12.42-4.47-21.19-13.69-25.84-26.24 c-3.79-10.24-1.45-18.57,7.78-24.28c6.14-3.8,13.03-7.06,20.02-8.62c11.64-2.59,23.64-3.61,35.48-5.34c3-0.44,6.89,0.52,7.64-5.61 c-16.18-13.07-34-24.25-55.26-28.95c-8.2-1.81-14.14-5.35-18.99-12.81c-13.62-20.97-33.21-34.62-57.5-40.3 c-11.55-2.7-23.74-3.76-35.62-3.64c-16.62,0.17-33.21,2.45-49.84,3.27c-21.28,1.05-42.58,1.93-63.88,2.05 c-7.14,0.04-14.6-1.65-21.38-4.05c-10.01-3.54-13.07-14.13-6.88-22.72c2.63-3.65,6.81-6.18,10.29-9.22 c2.16-1.88,4.33-3.76,7.81-6.78c-8.73-3.51-15.4-6.45-22.25-8.9c-49.79-17.74-100.83-29.34-153.65-33.83 c-48.45-4.12-95.87,0.02-142.28,13.94c-29.96,8.98-59.62,19.05-89.08,29.54c-33.91,12.08-67.14,25.84-97.58,45.47 c-2.76,1.78-5.87,3.13-8.99,4.2c-4.96,1.71-10.18-1.13-10.24-6.16c-0.09-7.92,0.11-15.98,1.48-23.75 c2.06-11.68,5.23-23.17,9.02-39.39c-15.92,10.34-26.23,19.64-36.19,29.32c-46.75,45.43-79.54,99.74-101.75,160.7 c-27.33,75.02-36.29,152.64-31.79,231.98c2.79,49.2,15.28,95.98,39.02,139.31c44.91,81.96,114.97,132.96,202.11,162.54 c2.15,0.73,4.77,0.09,9.14,0.09c-4.17-5.96-7.29-10.17-10.16-14.55c-10.22-15.58-20.46-31.15-30.39-46.91 c-1.49-2.37-1.41-5.73-2.46-10.49l-16.04-32.61c-32.45-61.42-22.74-146,24.91-190.63c4.54,2.82,9.62,5.61,14.31,8.94 c30.51,21.66,62.54,40.69,96.55,56.35c28.57,13.15,58.06,23.65,89.18,28.53c26.51,4.15,53.16,4.65,79.32-2.71 c10.1-2.84,20.45-5.61,29.44-13.37c-11.56-14.96-29.87-22.28-40.36-36.93c2.39-5.12,6.07-4.36,9.18-4.42 c19.33-0.42,38.69-0.11,57.98-1.13c37.97-2.01,75.67-6.42,112.66-15.68c21.4-5.36,42.22-12.33,61.35-23.58 c11.45-6.73,22.17-14.38,30.32-27.33c-4.26-1.7-7.05-3.27-10.03-3.92c-18.87-4.13-37.8-7.95-56.65-12.14 c-4.97-1.1-9.73-3.16-17.33-5.69c6.14-3.06,9.45-5.23,13.07-6.44c32.27-10.81,65.02-19.64,98.98-23.37 c13.37-1.47,26.55-1,39.73,1.99c10.98,2.49,19.84,8,25.94,17.26c4.74,7.2,9.17,14.76,12.53,22.67 c11.26,26.53,17.3,54.53,21.91,82.85c0.52,3.17,0.07,6.5,0.07,8.86l6.21,54.33c1.24,2.52,1.9,4.44,3.05,6 c1,1.36,2.55,2.31,4.44,3.94c3.15-3.38,6-6.12,8.47-9.16c32.17-39.41,59.43-81.9,80.62-128.23 c18.16-39.69,30.58-81.01,34.03-124.62C1103.03,433.34,1102.07,418.62,1101.6,404.01z"/>
   <path fill="#ff4500" class="tj-white" d="M963.06,647.98c-0.48,0.45-1.01,1.06-1.6,1.18c-225.38,44.8-450.77,89.56-676.17,134.29 c-4.49,0.89-9.07,1.4-13.33,2.05L288,818.11c9.62,0.7,17.57,0.73,25.33,1.96c13.23,2.1,22.31,8.34,28.04,22.03 c15.74,37.64,45.1,60.13,84.58,69.48c31.18,7.38,62.18,5.07,92.98-2.52c49.21-12.14,82.5-41.42,97.54-90.49 c1.94-6.31,4.44-12.67,7.9-18.25c8.33-13.47,27.15-14.02,37.02-1.5c1.65,2.09,3,4.41,4.59,6.54c18.34,24.41,42.3,40.02,72.23,46.62 c29.32,6.47,58.27,3.91,87.09-2.91c39.03-9.23,68.5-31.63,89.3-65.62c13-21.24,21.41-44.28,26.06-68.74 c0.95-5.02,2.77-9.88,4.17-14.76c9.68,0,18.14,0,26.44,0l-6.21-54.33C963.9,647,963.53,647.54,963.06,647.98z"/>
</svg>
