<svg xmlns="http://www.w3.org/2000/svg" viewBox="0 0 408.28 408.29">
  <path style="fill: #010101;" d="M387.24,0H119.19v59.59h218.98c5.79,0,10.52,4.73,10.52,10.52v338.17h49.07c5.79,0,10.52-4.73,10.52-10.52V21.04c0-11.59-9.45-21.04-21.04-21.04Z"/>
  <path style="fill: #ec008c;" d="M234.7,256.13h10.91c5.79,0,10.52-4.72,10.52-10.52v-82.93c0-5.79-4.73-10.52-10.52-10.52h-82.93c-5.79,0-10.52,4.73-10.52,10.52v82.93c0,5.8,4.73,10.52,10.52,10.52h72.02Z"/>
  <path style="fill: #010101;" d="M59.59,338.17V0H10.52C4.73,0,0,4.73,0,10.52v376.72c0,11.59,9.45,21.04,21.04,21.04h268.05v-59.59H70.12c-5.8,0-10.52-4.73-10.52-10.52Z"/>
</svg>