<svg xmlns="http://www.w3.org/2000/svg" viewBox="0 0 503.19 511.69">
    <rect fill="none" width="503.19" height="511.69" />
    <path fill="#fff" d="M434.35,52.01H166.3v59.59h218.98c5.79,0,10.52,4.73,10.52,10.52v338.17h49.07c5.79,0,10.52-4.73,10.52-10.52V73.05c0-11.59-9.45-21.04-21.04-21.04Z"/>
    <path fill="#ec008c" d="M281.8,308.14h10.91c5.79,0,10.52-4.72,10.52-10.52v-82.93c0-5.79-4.73-10.52-10.52-10.52h-82.93c-5.79,0-10.52,4.73-10.52,10.52v82.93c0,5.8,4.73,10.52,10.52,10.52h72.02Z"/>
    <path fill="#fff" d="M106.7,390.18V52.01h-49.07c-5.79,0-10.52,4.73-10.52,10.52v376.72c0,11.59,9.45,21.04,21.04,21.04h268.05v-59.59H117.22c-5.8,0-10.52-4.73-10.52-10.52Z"/>
</svg>